<svg width="40" height="40" viewBox="0 0 40 40" fill="none" xmlns="http://www.w3.org/2000/svg">
<path d="M19.9999 6.66675C19.9999 6.66675 9.57583 6.6667 6.97583 7.36336C5.54083 7.7467 4.4132 8.87599 4.02987 10.3093C3.3332 12.9093 3.33325 20.0001 3.33325 20.0001C3.33325 20.0001 3.3332 27.0908 4.02987 29.6908C4.4132 31.1258 5.5425 32.2535 6.97583 32.6368C9.57583 33.3335 19.9999 33.3334 19.9999 33.3334C19.9999 33.3334 30.424 33.3335 33.024 32.6368C34.4573 32.2535 35.5866 31.1242 35.97 29.6908C36.6666 27.0908 36.6666 20.0001 36.6666 20.0001C36.6666 20.0001 36.6666 12.9093 35.97 10.3093C35.5866 8.87599 34.4573 7.7467 33.024 7.36336C30.424 6.6667 19.9999 6.66675 19.9999 6.66675ZM19.9999 10.0001C24.8033 10.0001 30.818 10.2228 32.1614 10.5828C32.443 10.6578 32.6739 10.8886 32.7506 11.172C33.1522 12.6686 33.3333 17.2367 33.3333 20.0001C33.3333 22.7634 33.1522 27.3299 32.7506 28.8282C32.6756 29.1099 32.4447 29.3407 32.1614 29.4174C30.8197 29.7774 24.8033 30.0001 19.9999 30.0001C15.1983 30.0001 9.18346 29.7774 7.83846 29.4174C7.55679 29.3424 7.32593 29.1115 7.24927 28.8282C6.8476 27.3315 6.66659 22.7634 6.66659 20.0001C6.66659 17.2367 6.8476 12.6687 7.24927 11.1687C7.32427 10.8887 7.55513 10.6578 7.83846 10.5828C9.18013 10.2228 15.1966 10.0001 19.9999 10.0001ZM16.6666 14.2253V25.7748L26.6666 20.0001L16.6666 14.2253Z" fill="white"/>
</svg>
