<svg width="40" height="40" viewBox="0 0 40 40" fill="none" xmlns="http://www.w3.org/2000/svg">
<path d="M19.9999 3.33325C10.8149 3.33325 3.33325 10.8149 3.33325 19.9999C3.33325 29.1849 10.8149 36.6666 19.9999 36.6666C29.1849 36.6666 36.6666 29.1849 36.6666 19.9999C36.6666 10.8149 29.1849 3.33325 19.9999 3.33325ZM19.9999 6.66659C27.3835 6.66659 33.3333 12.6164 33.3333 19.9999C33.3333 26.6907 28.4421 32.1883 22.0312 33.164V23.9745H25.9114L26.5201 20.0325H22.0312V17.8775C22.0312 16.2392 22.5649 14.7851 24.0982 14.7851H26.5592V11.3443C26.1258 11.286 25.2113 11.1588 23.483 11.1588C19.873 11.1588 17.7571 13.0654 17.7571 17.4088V20.0325H14.0461V23.9745H17.7571V33.1314C11.4504 32.068 6.66659 26.617 6.66659 19.9999C6.66659 12.6164 12.6164 6.66659 19.9999 6.66659Z" fill="white"/>
</svg>
