<?xml version="1.0" encoding="UTF-8"?>
<svg version="1.1" xmlns="http://www.w3.org/2000/svg" width="227" height="462">
<path d="M0 0 C146.30683919 0 146.30683919 0 174.171875 27.11328125 C185.64112558 39.27157596 192.45241161 54.54302066 196.75 70.5 C197.04813599 71.60142334 197.04813599 71.60142334 197.35229492 72.72509766 C201.09701211 87.47604104 201.29840268 101.94318962 201.29052734 117.05957031 C201.29652146 119.36737788 201.30332903 121.67518346 201.31088257 123.98298645 C201.32845832 130.21664912 201.33323434 136.45025679 201.33451414 142.68394184 C201.33594092 146.58747483 201.34022042 150.49099406 201.34550858 154.39452362 C201.36302913 167.33563096 201.3723523 180.27669963 201.37084763 193.21781829 C201.37076772 193.91309157 201.3706878 194.60836486 201.37060547 195.32470703 C201.37052371 196.02084412 201.37044195 196.71698121 201.37035771 197.43421337 C201.3695453 208.70854254 201.38868008 219.98273797 201.4168822 231.25702849 C201.44571461 242.8763577 201.45905187 254.49561576 201.45769465 266.11498141 C201.45718696 272.62116167 201.46276319 279.12719032 201.48405075 285.63333893 C201.50354132 291.75666282 201.50348399 297.87969213 201.48901749 304.00302696 C201.48694178 306.23693718 201.49155543 308.47086638 201.5037384 310.70474434 C201.59670337 328.94719877 199.41410812 345.18095844 192 362 C191.64421875 362.83402344 191.2884375 363.66804688 190.921875 364.52734375 C180.3431069 387.51008993 160.14806891 404.57948744 136.86621094 413.84960938 C94.31198699 429.29859968 39.47991503 420 0 420 C0 281.4 0 142.8 0 0 Z M69.1875 216.25 C62.09321935 226.06650462 60.84643472 236.21460626 62 248 C64.25757909 258.78027414 70.74456148 267.11109065 79.57421875 273.4921875 C89.55015899 279.69301348 100.7720243 280.72308289 112.15234375 278.33984375 C123.33709105 274.71617387 131.80255052 266.81122995 137.3203125 256.54296875 C141.37143851 247.09506299 141.6001898 235.82439536 138.4375 226.0625 C133.86091606 215.38913815 125.61086185 207.13908394 114.9375 202.5625 C97.52060611 196.91971951 80.79390211 202.47509814 69.1875 216.25 Z " fill="#F0F0F0" transform="translate(8,20)"/>
</svg>
