<?xml version="1.0" encoding="UTF-8"?>
<svg version="1.1" xmlns="http://www.w3.org/2000/svg" width="209" height="449">
<path d="M0 0 C0 138.6 0 277.2 0 420 C-140.90266393 420 -140.90266393 420 -172.3125 390.0625 C-179.67060772 382.34810496 -185.23472597 373.48981922 -190 364 C-190.66322266 362.72576172 -190.66322266 362.72576172 -191.33984375 361.42578125 C-197.43589091 349.02986772 -200.15380395 335.15630889 -200.14044189 321.4156189 C-200.14341302 320.45680175 -200.14638414 319.49798461 -200.1494453 318.5101124 C-200.15811012 315.30018976 -200.15963872 312.0903045 -200.16113281 308.88037109 C-200.16576283 306.57698996 -200.17078774 304.27360959 -200.17617798 301.9702301 C-200.18929277 295.71117796 -200.19574602 289.45213654 -200.20018864 283.1930728 C-200.20312295 279.27617086 -200.20722861 275.35927184 -200.21169281 271.44237137 C-200.22380333 260.57510422 -200.23418291 249.70784029 -200.2375679 238.84056664 C-200.23778747 238.14548474 -200.23800703 237.45040284 -200.23823325 236.73425785 C-200.23845153 236.03759297 -200.23866981 235.34092808 -200.2388947 234.62315214 C-200.23933815 233.21165872 -200.23978471 231.80016529 -200.24023438 230.38867188 C-200.2404558 229.68853539 -200.24067723 228.98839891 -200.24090537 228.26704617 C-200.24484255 216.95478789 -200.26226275 205.64259446 -200.2855939 194.33036117 C-200.30941283 182.68642321 -200.32151766 171.04252081 -200.32293582 159.39855826 C-200.32397927 152.87321523 -200.3297876 146.34796353 -200.34775543 139.82264328 C-200.36436221 133.67155929 -200.36633103 127.52063401 -200.35761642 121.36953545 C-200.35685255 119.12679682 -200.36110163 116.88404921 -200.37107468 114.64133263 C-200.51266408 80.78088685 -194.52820328 49.78492205 -170.8125 24.3125 C-128.68990985 -15.98502126 -43.3377733 0 0 0 Z M-156.796875 40.609375 C-172.95102542 58.13834673 -178.45028459 80.86204914 -179.55342102 104.16896057 C-179.59552147 105.04234245 -179.63762192 105.91572433 -179.68099815 106.81557232 C-180.10570452 116.30943924 -180.1482619 125.79493302 -180.14526367 135.29663086 C-180.14826634 137.23592695 -180.15167135 139.17522246 -180.15544128 141.11451721 C-180.16416948 146.31705955 -180.16661451 151.51958539 -180.16725707 156.72213435 C-180.16797358 159.98683701 -180.17011902 163.25153562 -180.17275429 166.51623726 C-180.18196822 177.94564195 -180.18609385 189.37503508 -180.18530273 200.80444336 C-180.18470188 211.39608632 -180.19526545 221.98767837 -180.2110464 232.57930845 C-180.22418615 241.72986045 -180.229484 250.88039593 -180.22884732 260.03095728 C-180.22859438 265.47125301 -180.23133229 270.9115033 -180.24202538 276.35178947 C-180.25181656 281.47132703 -180.25171137 286.59077668 -180.24450874 291.71031761 C-180.24347669 293.57046896 -180.24574178 295.43062612 -180.2518692 297.29076767 C-180.28171218 306.99146726 -180.00301342 316.58882266 -179.11763 326.25318909 C-179.04114611 327.10592185 -178.96466221 327.95865461 -178.88586062 328.83722776 C-176.90082542 348.49209526 -168.17223768 365.44829815 -154 379 C-153.23171875 379.73863281 -152.4634375 380.47726562 -151.671875 381.23828125 C-118.01938024 410.71283023 -55.63891952 400 -20 400 C-20 274.6 -20 149.2 -20 20 C-90.65040115 13.74706909 -90.65040115 13.74706909 -156.796875 40.609375 Z " fill="#F0F0F0" transform="translate(204,18)"/>
<path d="M0 0 C10.86862483 7.13856424 17.30914296 16.71946763 20.265625 29.421875 C21.71834131 44.16437435 20.23374477 57.15622383 11.109375 69.23828125 C4.1090818 77.52888273 -6.01950207 83.56311708 -16.97412109 84.64257812 C-32.32167762 85.38041136 -44.63768858 83.63589287 -56.734375 73.421875 C-64.56559184 66.12421359 -69.55687644 55.46506133 -70.0703125 44.78515625 C-70.3495444 29.27939376 -67.98898103 17.35311496 -57.078125 5.64453125 C-42.14758034 -8.1943934 -17.36195243 -10.02032683 0 0 Z M-42.46875 21.29296875 C-48.75699015 29.21315693 -49.77179829 36.40801018 -48.734375 46.421875 C-46.5997012 53.85848279 -42.41876036 58.63219209 -35.734375 62.421875 C-29.03179141 64.65606953 -18.60565267 64.79644621 -12.109375 61.921875 C-6.51443678 58.44360589 -2.73622231 52.59952145 -0.734375 46.421875 C0.29373761 37.55846206 -0.17808525 29.66631978 -5.734375 22.421875 C-12.81742372 15.68333254 -19.33720764 14.96476308 -28.76953125 15.15234375 C-34.81520701 15.56333057 -38.35812032 16.85830294 -42.46875 21.29296875 Z " fill="#F0F0F0" transform="translate(133.734375,83.578125)"/>
</svg>
