<svg width="33" height="47" viewBox="0 0 33 47" fill="none" xmlns="http://www.w3.org/2000/svg">
<path d="M0.0958772 25.2023C0.0958772 25.5302 0.0249281 25.9031 0 26.161C0 29.1812 0.126558 32.79 0.383509 35.6529C0.641418 38.5158 2.97603 39.4698 5.05944 40.8523C7.14285 42.2349 9.16011 43.2607 11.3058 44.4813C13.4525 45.7008 16.1563 47.1975 18.534 46.0374C20.9108 44.8763 22.7948 44.0143 25.0163 42.6443C27.2387 41.2751 28.9031 40.4669 31.0402 38.7929C33.1773 37.1189 32.9818 33.4218 32.9818 30.859C32.9818 29.5167 32.9818 28.1745 32.9818 26.8322C32.9818 24.4036 33.2742 20.7526 31.7114 18.8983C30.1486 17.0431 28.2109 16.5283 26.3375 15.1639C24.4631 13.8005 22.4324 13.1582 20.4295 11.8677C18.4257 10.5781 15.7967 10.0949 13.6817 11.3662C11.5657 12.6385 9.75263 13.2838 7.69223 14.5819C5.63183 15.8801 4.21668 16.6634 2.17641 18.1745C0.136145 19.6855 0.0958772 22.7593 0.0958772 25.2023ZM20.7095 33.0642C20.7382 33.3653 20.8082 33.6136 20.7095 33.9271C20.2521 35.3729 18.8562 34.0326 17.8322 33.9281C16.8092 33.8236 15.3308 33.3643 14.2637 34.1927C13.1965 35.0211 11.7785 34.1879 12.2713 32.8715C12.7641 31.5551 11.7986 30.3279 11.5292 29.3969C11.2589 28.4669 9.52923 27.5235 10.3327 26.6184C11.1361 25.7133 12.512 26.2282 13.3509 25.418C14.1898 24.6069 15.022 24.5081 15.4286 23.2771C15.8351 22.0469 17.371 22.2454 17.7133 23.4046C18.0566 24.5628 19.0853 24.7584 19.8178 25.5187C20.5494 26.2799 22.3135 25.8638 22.8111 26.8399C23.3087 27.8168 21.8974 28.5465 21.4046 29.4448C20.9118 30.3432 20.7095 31.9357 20.7095 33.0642Z" fill="#E9ED24"/>
<path d="M21.2377 0.0422143C19.9664 -0.0805085 18.5743 0.110287 17.3068 0.0422143C16.0393 -0.0258585 14.6107 0.100699 13.3758 0.0422143C12.1409 -0.0162708 10.8456 0.165896 9.73248 0.329846C8.62031 0.493796 7.68263 0.749788 6.76796 1.29629C5.85329 1.84279 5.43335 2.35477 4.87246 3.23589C4.31062 4.11604 4.20228 5.27232 3.97985 6.27424C3.75741 7.27615 3.7018 9.21383 4.82069 8.55324C5.93958 7.89264 6.34993 7.68076 7.32788 7.12946C8.30583 6.57817 8.92999 6.23301 9.85712 5.72774C10.7852 5.22342 11.3806 4.84375 12.3135 4.34902C13.2473 3.85525 14.3049 3.60405 15.3892 3.4938C16.4736 3.38354 18.0268 3.54845 19.0259 3.78814C20.0239 4.02783 20.8494 4.57241 21.7095 5.0355C22.5695 5.49859 23.4218 5.99236 24.2387 6.43723C25.0565 6.88114 25.9511 7.37395 26.6951 7.81594C27.44 8.25698 28.9645 9.24068 28.906 8.00194C28.8466 6.76417 28.7516 5.6031 28.4266 4.55036C28.1006 3.49859 27.7344 2.79677 27.0144 2.03167C26.2934 1.26657 25.464 0.929079 24.5043 0.610767C23.5446 0.291495 22.2349 0.13905 21.2377 0.0422143Z" fill="#E9ED24"/>
</svg>
