<svg width="328" height="445" viewBox="0 0 328 445" fill="none" xmlns="http://www.w3.org/2000/svg">
<path d="M212.838 -58.8937C212.279 -58.9201 133.301 34.6831 37.2948 149.099C-121.094 337.86 -137.058 357.058 -136.216 358.65C-134.642 361.446 -68.2373 416.576 -59.332 422.573C-21.4006 447.617 27.0382 451.834 70.3043 434.011C75.8475 431.731 84.3962 427.253 89.4031 424.227C108.424 412.46 104.622 416.644 208.98 292.275C292.278 193.005 304.526 178.063 308.634 170.744C338.036 118.575 332.752 56.1799 294.815 11.0727C289.722 5.02978 280.738 -2.9508 251.089 -27.8294C230.642 -44.9871 213.384 -59.0255 212.838 -58.8937ZM145.659 205.959C155.973 220.66 158.236 240.11 151.628 256.982C147.613 267.477 137.506 279.349 128.449 284.433C111.777 293.747 93.4925 294.775 77.3944 287.314C51.3742 275.067 39.6773 242.981 51.4681 216.299C55.113 208.148 64.4938 197.142 72.2883 192.178C96.4706 176.336 129.08 182.461 145.659 205.959Z" fill="url(#paint0_linear_653_5652)" fill-opacity="0.5"/>
<defs>
<linearGradient id="paint0_linear_653_5652" x1="206.96" y1="261.629" x2="-103.703" y2="8.02322" gradientUnits="userSpaceOnUse">
<stop stop-color="#2387AB" stop-opacity="0.5"/>
<stop offset="0.507709"/>
</linearGradient>
</defs>
</svg>
