<svg width="421" height="441" viewBox="0 0 421 441" fill="none" xmlns="http://www.w3.org/2000/svg">
<path d="M435.004 77.8119C386.434 49.5338 326.869 51.1989 282.676 82.012C266.722 93.1431 259.386 101.349 166.175 213.329C80.4308 316.052 78.5188 318.51 73.6394 327.908C47.6408 378.775 53.5388 435.516 89.7404 483.011C94.4903 489.173 101.685 495.645 149.189 535.941C198.297 577.728 203.484 581.936 205.879 581.769C208.274 581.602 222.149 565.245 378.45 378.973C494.318 240.886 548.63 175.622 549.013 173.912C549.417 171.64 547.989 170.296 496.23 127.011C454.174 91.8664 441.346 81.5381 435.004 77.8119ZM343.383 349.113L198.654 521.593L163.113 491.045C130.322 462.95 126.937 459.82 121.679 452.651C99.2064 421.753 95.8417 382.951 113.006 350.494C118.28 340.268 296.012 128.455 304.936 121.581C330.302 102.1 364.146 96.6958 394.844 107.222C410.273 112.479 416.082 116.483 453.905 148.075L488.111 176.632L343.383 349.113Z" fill="url(#paint0_linear_653_5667)" fill-opacity="0.5"/>
<path d="M370.234 173.18C363.741 169.546 351.636 166.645 343.754 166.834C327.648 167.077 313.423 174.643 302.819 188.724C297.294 196.031 296.175 198.267 294.255 206.331C291.212 218.442 292.236 230.035 297.284 241.527C300.782 249.451 301.995 251.074 309.504 257.828C316.302 263.986 319.014 265.808 325.064 268.163C349.784 277.87 377.134 268.921 389.925 246.999C405.234 220.992 396.352 187.537 370.234 173.18Z" fill="url(#paint1_linear_653_5667)" fill-opacity="0.5"/>
<defs>
<linearGradient id="paint0_linear_653_5667" x1="448.055" y1="86.5488" x2="103.145" y2="497.597" gradientUnits="userSpaceOnUse">
<stop stop-color="#E60012"/>
<stop offset="0.9999"/>
</linearGradient>
<linearGradient id="paint1_linear_653_5667" x1="379.118" y1="179.326" x2="311.625" y2="259.761" gradientUnits="userSpaceOnUse">
<stop stop-color="#E60012"/>
<stop offset="0.9999"/>
</linearGradient>
</defs>
</svg>
