<svg id="Livello_1" data-name="Livello 1" xmlns="http://www.w3.org/2000/svg" viewBox="0 0 224.18705 179.75938"><defs><style>.cls-1{fill:#333;}</style></defs><circle class="cls-1" cx="30.55131" cy="65.14396" r="7.67931" transform="translate(-14.14978 8.76196) rotate(-13.28257)"/><path class="cls-1" d="M34.66824,105.10918a3.83963,3.83963,0,1,0,3.8396-3.83966A3.83966,3.83966,0,0,0,34.66824,105.10918Z"/><path class="cls-1" d="M22.88022,101.26952a3.83963,3.83963,0,1,0,3.83966,3.83966A3.83964,3.83964,0,0,0,22.88022,101.26952Z"/><path class="cls-1" d="M30.69406,109.08336a3.83963,3.83963,0,1,0,3.8396,3.83966A3.83964,3.83964,0,0,0,30.69406,109.08336Z"/><path class="cls-1" d="M30.55948,101.26952a3.83963,3.83963,0,1,0-3.8396-3.8396A3.83963,3.83963,0,0,0,30.55948,101.26952Z"/><path class="cls-1" d="M193.156,43.30986H30.91379A21.5356,21.5356,0,0,0,9.40207,64.82061v50.11718a21.53643,21.53643,0,0,0,21.51172,21.51172H193.156a21.5356,21.5356,0,0,0,21.51075-21.51172V64.82061A21.53478,21.53478,0,0,0,193.156,43.30986ZM44.4841,130.44951H30.91379a15.52987,15.52987,0,0,1-15.51172-15.51172V64.82061A15.529,15.529,0,0,1,30.91379,49.30986H44.4841Zm6-81.13965H173.58468v81.13965H50.4841Zm158.18262,65.62793A15.529,15.529,0,0,1,193.156,130.44951H179.58468V49.30986H193.156a15.52821,15.52821,0,0,1,15.51075,15.51075Z"/><path class="cls-1" d="M193.518,106.93535a7.67929,7.67929,0,1,0,7.6792,7.67926A7.6793,7.6793,0,0,0,193.518,106.93535Z"/><circle class="cls-1" cx="185.56149" cy="74.6494" r="3.83963"/><path class="cls-1" d="M201.18918,70.8098a3.83963,3.83963,0,1,0,3.8396,3.8396A3.83968,3.83968,0,0,0,201.18918,70.8098Z"/><path class="cls-1" d="M193.37521,70.67522a3.83963,3.83963,0,1,0-3.8396-3.83966A3.83968,3.83968,0,0,0,193.37521,70.67522Z"/><path class="cls-1" d="M193.50986,78.48906a3.83963,3.83963,0,1,0,3.83959,3.8396A3.83968,3.83968,0,0,0,193.50986,78.48906Z"/><path class="cls-1" d="M59.21292,55.05974h105.473a4.48859,4.48859,0,0,1,4.48859,4.48859v60.66193a4.48859,4.48859,0,0,1-4.48859,4.48859H59.21286a4.48853,4.48853,0,0,1-4.48853-4.48853v-60.662A4.48859,4.48859,0,0,1,59.21292,55.05974Z"/></svg>